<svg width="81" height="68" viewBox="0 0 81 68" fill="none" xmlns="http://www.w3.org/2000/svg">
<path d="M18.1449 21.0428C22.2104 20.9621 26.1327 22.3779 29.4605 24.6316C36.1959 19.9626 44.8108 19.9626 51.548 24.6316C52.8167 23.9049 54.0239 23.0633 55.3869 22.5017C64.0327 18.947 74.0378 22.2971 78.5202 30.5172C79.8469 32.9504 81.2861 37.3933 80.6753 40.1243C80.2022 42.2417 76.6642 42.1502 76.3198 39.9287C76.1023 38.5201 76.1893 37.0667 75.7742 35.5917C73.3146 26.8584 62.3488 22.4676 54.9446 28.0804C58.1673 32.1124 61.0257 41.3248 56.4291 45.1755C53.7375 47.4311 49.5361 47.3988 46.801 45.2706C42.5995 42.003 44.2417 34.9673 46.2753 30.8312C46.5708 30.2301 48.057 28.3137 47.932 27.8812C43.6435 24.8505 37.3831 24.8415 33.0783 27.8812C33.7798 29.5141 34.8492 30.9514 35.5035 32.6202C37.5154 37.7539 37.8308 46.0583 30.6224 46.7994C19.4228 47.9514 21.1138 33.9032 26.0675 28.0804C18.4222 22.2307 6.80394 27.2945 4.99867 36.5176C4.64523 38.3263 5.25967 41.0215 3.0792 41.5814C-1.52462 42.7657 0.690292 34.5474 1.56755 32.3869C4.30266 25.6544 10.8477 21.1882 18.1467 21.0428H18.1449ZM29.4605 31.2242C27.3852 33.3918 24.5087 42.387 29.4605 42.387C32.4693 42.387 32.4476 39.3563 32.1104 37.1726C31.7969 35.1359 30.8507 32.7602 29.4605 31.2242ZM51.548 31.2242C49.7608 33.0616 48.173 37.8472 48.802 40.2463C49.3603 42.3763 51.9594 43.1227 53.5399 41.5832C55.463 39.7098 53.3206 33.0849 51.5498 31.2242H51.548Z" fill="white"/>
<path d="M14.781 18.1771C9.71865 18.1771 5.60059 14.1003 5.60059 9.08856C5.60059 4.07684 9.71865 0 14.781 0C19.8434 0 23.9615 4.07684 23.9615 9.08856C23.9615 14.1003 19.8434 18.1771 14.781 18.1771ZM14.781 4.58465C12.2725 4.58465 10.2334 6.60513 10.2334 9.08676C10.2334 11.5684 12.2743 13.5889 14.781 13.5889C17.2878 13.5889 19.3287 11.5684 19.3287 9.08676C19.3287 6.60513 17.2878 4.58465 14.781 4.58465Z" fill="white"/>
<path d="M39.1922 18.1771C34.1298 18.1771 30.0117 14.1003 30.0117 9.08856C30.0117 4.07684 34.1316 0 39.1922 0C44.2527 0 48.3726 4.07684 48.3726 9.08856C48.3726 14.1003 44.2545 18.1771 39.1922 18.1771ZM39.1922 4.58465C36.6836 4.58465 34.6445 6.60513 34.6445 9.08676C34.6445 11.5684 36.6854 13.5889 39.1922 13.5889C41.6989 13.5889 43.7398 11.5684 43.7398 9.08676C43.7398 6.60513 41.6989 4.58465 39.1922 4.58465Z" fill="white"/>
<path d="M63.6033 18.1771C58.5409 18.1771 54.4229 14.1003 54.4229 9.08856C54.4229 4.07684 58.5427 0 63.6033 0C68.6639 0 72.7837 4.07684 72.7837 9.08856C72.7837 14.1003 68.6657 18.1771 63.6033 18.1771ZM63.6033 4.58465C61.0948 4.58465 59.0557 6.60513 59.0557 9.08676C59.0557 11.5684 61.0966 13.5889 63.6033 13.5889C66.11 13.5889 68.1509 11.5684 68.1509 9.08676C68.1509 6.60513 66.11 4.58465 63.6033 4.58465Z" fill="white"/>
<path d="M3.75918 58.4684H0.451319C0.20119 58.4684 0 58.2675 0 58.0216V55.9258C0 55.6782 0.203003 55.479 0.451319 55.479H11.4244C11.6745 55.479 11.8757 55.68 11.8757 55.9258V58.0216C11.8757 58.2693 11.6727 58.4684 11.4244 58.4684H8.09837C7.84824 58.4684 7.64705 58.6694 7.64705 58.9152V67.3291C7.64705 67.5767 7.44405 67.7759 7.19573 67.7759H4.66363C4.4135 67.7759 4.21231 67.575 4.21231 67.3291V58.9152C4.21231 58.6676 4.00931 58.4684 3.76099 58.4684H3.75918Z" fill="white"/>
<path d="M16.71 63.2325V64.3934C16.71 64.6411 16.913 64.8402 17.1613 64.8402H22.7529C23.0031 64.8402 23.2043 65.0412 23.2043 65.287V67.3273C23.2043 67.5749 23.0013 67.7741 22.7529 67.7741H13.7248C13.4746 67.7741 13.2734 67.5731 13.2734 67.3273V55.9221C13.2734 55.6745 13.4764 55.4753 13.7248 55.4753H22.4503C22.7004 55.4753 22.9016 55.6763 22.9016 55.9221V57.9624C22.9016 58.21 22.6986 58.4092 22.4503 58.4092H17.1613C16.9112 58.4092 16.71 58.6101 16.71 58.856V59.8124C16.71 60.06 16.913 60.2592 17.1613 60.2592H21.6201C21.8702 60.2592 22.0714 60.4601 22.0714 60.706V62.3353C22.0714 62.5829 21.8684 62.7821 21.6201 62.7821H17.1613C16.9112 62.7821 16.71 62.983 16.71 63.2289V63.2325Z" fill="white"/>
<path d="M33.1379 55.7535L37.8831 67.1586C38.0063 67.4529 37.787 67.7758 37.4644 67.7758H34.5933C34.4085 67.7758 34.2417 67.6646 34.1746 67.4941L33.4206 65.6262C33.3518 65.4557 33.185 65.3445 33.0019 65.3445H28.9328C28.7461 65.3445 28.5794 65.4575 28.5123 65.628L27.7746 67.4905C27.7076 67.661 27.539 67.7741 27.3541 67.7741H24.4849C24.1641 67.7741 23.9447 67.4511 24.0662 67.1568L28.8114 55.7517C28.8803 55.5848 29.047 55.4753 29.2301 55.4753H32.7228C32.9059 55.4753 33.0708 55.5848 33.1415 55.7517L33.1379 55.7535ZM30.0874 62.8413H31.8401C32.1609 62.8413 32.3802 62.5201 32.2588 62.2258L31.8891 61.3286C31.6335 60.688 31.1332 59.0605 31.0372 58.7465C31.0281 58.7142 30.9973 58.6927 30.9647 58.6927C30.9302 58.6927 30.9012 58.7142 30.8922 58.7465C30.7961 59.0587 30.2958 60.6719 30.0403 61.3286L29.6705 62.2258C29.5491 62.5201 29.7684 62.8413 30.0892 62.8413H30.0874Z" fill="white"/>
<path d="M44.03 62.4501C43.7092 61.9638 42.7649 60.3004 42.7649 60.3004L42.7087 60.3184C42.7087 60.3184 42.8791 62.2438 42.8791 62.879V67.329C42.8791 67.5767 42.6761 67.7758 42.4278 67.7758H39.8957C39.6455 67.7758 39.4443 67.5749 39.4443 67.329V55.9239C39.4443 55.6763 39.6473 55.4771 39.8957 55.4771H42.7486C42.9008 55.4771 43.044 55.5543 43.1274 55.6799L46.5821 60.9339H46.6201L50.0549 55.6799C50.1382 55.5525 50.2814 55.4753 50.4337 55.4753H53.2848C53.5349 55.4753 53.7361 55.6763 53.7361 55.9221V67.3273C53.7361 67.5749 53.5331 67.7741 53.2848 67.7741H50.7527C50.5026 67.7741 50.3014 67.5731 50.3014 67.3273V62.8772C50.3014 62.242 50.4518 60.3166 50.4518 60.3166L50.3956 60.2986C50.3956 60.2986 49.4513 61.962 49.1305 62.4483L46.979 65.7572C46.8956 65.8846 46.7524 65.9617 46.5984 65.9617C46.4461 65.9617 46.3029 65.8864 46.2196 65.759L44.03 62.4465V62.4501Z" fill="white"/>
<path d="M67.6323 55.4771C67.8824 55.4771 68.0836 55.678 68.0836 55.9239V62.7102C68.0836 66.299 65.4772 68.0001 62.0787 68.0001C58.6802 68.0001 56.0557 66.299 56.0557 62.7102V55.9239C56.0557 55.6762 56.2587 55.4771 56.507 55.4771H59.059C59.3092 55.4771 59.5103 55.678 59.5103 55.9239V62.5236C59.5103 64.0757 60.3405 65.0088 62.0787 65.0088C63.8169 65.0088 64.647 64.0739 64.647 62.5236V55.9239C64.647 55.6762 64.85 55.4771 65.0984 55.4771H67.6305H67.6323Z" fill="white"/>
<path d="M75.4484 55.4771C79.2439 55.4771 81.0002 57.3271 81.0002 59.963C81.0002 62.8412 79.2058 64.4687 75.9016 64.4687H74.3138C74.0637 64.4687 73.8625 64.6697 73.8625 64.9155V67.329C73.8625 67.5766 73.6595 67.7758 73.4112 67.7758H70.8791C70.6289 67.7758 70.4277 67.5748 70.4277 67.329V55.9239C70.4277 55.6762 70.6307 55.4771 70.8791 55.4771H75.4502H75.4484ZM75.4865 61.8704C76.9963 61.8704 77.6198 61.2352 77.6198 60.0761C77.6198 59.2722 77.299 58.3929 75.3542 58.3929H74.3138C74.0637 58.3929 73.8625 58.5939 73.8625 58.8397V61.4218C73.8625 61.6695 74.0655 61.8686 74.3138 61.8686H75.4865V61.8704Z" fill="white"/>
</svg>

