<svg width="84" height="71" viewBox="0 0 84 71" fill="none" xmlns="http://www.w3.org/2000/svg">
    <path d="M18.8171 21.9702C23.0332 21.8859 27.1007 23.3641 30.5518 25.7173C37.5366 20.8423 46.4706 20.8423 53.4573 25.7173C54.7731 24.9585 56.0249 24.0798 57.4384 23.4934C66.4044 19.7819 76.7801 23.2798 81.4285 31.8626C82.8044 34.4031 84.2968 39.042 83.6634 41.8935C83.1728 44.1043 79.5037 44.0088 79.1466 41.6893C78.921 40.2186 79.0112 38.701 78.5808 37.161C76.0301 28.0424 64.6582 23.4578 56.9798 29.3183C60.3218 33.5281 63.286 43.1469 58.5192 47.1676C55.7279 49.5226 51.3709 49.4889 48.5345 47.2669C44.1774 43.8551 45.8804 36.509 47.9894 32.1904C48.2958 31.5628 49.8371 29.5618 49.7074 29.1103C45.2601 25.9459 38.7678 25.9365 34.3036 29.1103C35.031 30.8152 36.14 32.316 36.8186 34.0584C38.905 39.4186 39.2321 48.0894 31.7567 48.8631C20.1423 50.066 21.896 35.3979 27.0331 29.3183C19.1047 23.2105 7.05609 28.4977 5.18395 38.1277C4.81742 40.0162 5.45462 42.8303 3.19339 43.4149C-1.58094 44.6514 0.716003 36.0706 1.62576 33.8148C4.46216 26.7852 11.2496 22.122 18.819 21.9702H18.8171ZM30.5518 32.6007C28.3996 34.864 25.4166 44.2561 30.5518 44.2561C33.672 44.2561 33.6495 41.0917 33.2999 38.8116C32.9747 36.6851 31.9935 34.2045 30.5518 32.6007ZM53.4573 32.6007C51.604 34.5193 49.9574 39.516 50.6096 42.0209C51.1886 44.2448 53.884 45.0242 55.5231 43.4167C57.5174 41.4607 55.2956 34.5436 53.4592 32.6007H53.4573Z" fill="#37C5E7"/>
    <path d="M15.3281 18.979C10.0782 18.979 5.80762 14.7223 5.80762 9.48952C5.80762 4.2567 10.0782 0 15.3281 0C20.578 0 24.8485 4.2567 24.8485 9.48952C24.8485 14.7223 20.578 18.979 15.3281 18.979ZM15.3281 4.78692C12.7266 4.78692 10.612 6.89653 10.612 9.48765C10.612 12.0788 12.7285 14.1884 15.3281 14.1884C17.9276 14.1884 20.0441 12.0788 20.0441 9.48765C20.0441 6.89653 17.9276 4.78692 15.3281 4.78692Z" fill="#37C5E7"/>
    <path d="M40.6435 18.979C35.3936 18.979 31.123 14.7223 31.123 9.48952C31.123 4.2567 35.3955 0 40.6435 0C45.8915 0 50.164 4.2567 50.164 9.48952C50.164 14.7223 45.8934 18.979 40.6435 18.979ZM40.6435 4.78692C38.0421 4.78692 35.9274 6.89653 35.9274 9.48765C35.9274 12.0788 38.0439 14.1884 40.6435 14.1884C43.2431 14.1884 45.3596 12.0788 45.3596 9.48765C45.3596 6.89653 43.2431 4.78692 40.6435 4.78692Z" fill="#37C5E7"/>
    <path d="M65.9589 18.979C60.7091 18.979 56.4385 14.7223 56.4385 9.48952C56.4385 4.2567 60.7109 0 65.9589 0C71.2069 0 75.4794 4.2567 75.4794 9.48952C75.4794 14.7223 71.2088 18.979 65.9589 18.979ZM65.9589 4.78692C63.3575 4.78692 61.2429 6.89653 61.2429 9.48765C61.2429 12.0788 63.3594 14.1884 65.9589 14.1884C68.5585 14.1884 70.675 12.0788 70.675 9.48765C70.675 6.89653 68.5585 4.78692 65.9589 4.78692Z" fill="#37C5E7"/>
    <path d="M3.89841 61.0471H0.468035C0.208642 61.0471 0 60.8373 0 60.5806V58.3923C0 58.1337 0.210522 57.9258 0.468035 57.9258H11.8475C12.1069 57.9258 12.3155 58.1356 12.3155 58.3923V60.5806C12.3155 60.8392 12.105 61.0471 11.8475 61.0471H8.39831C8.13891 61.0471 7.93027 61.2569 7.93027 61.5136V70.2987C7.93027 70.5572 7.71975 70.7652 7.46224 70.7652H4.83636C4.57696 70.7652 4.36832 70.5554 4.36832 70.2987V61.5136C4.36832 61.2551 4.1578 61.0471 3.90029 61.0471H3.89841Z" fill="#37C5E7"/>
    <path d="M17.3285 66.0212V67.2334C17.3285 67.492 17.539 67.6999 17.7965 67.6999H23.5953C23.8546 67.6999 24.0633 67.9098 24.0633 68.1664V70.2967C24.0633 70.5552 23.8528 70.7632 23.5953 70.7632H14.2327C13.9733 70.7632 13.7646 70.5533 13.7646 70.2967V58.3884C13.7646 58.1298 13.9752 57.9219 14.2327 57.9219H23.2814C23.5407 57.9219 23.7494 58.1317 23.7494 58.3884V60.5186C23.7494 60.7772 23.5389 60.9851 23.2814 60.9851H17.7965C17.5371 60.9851 17.3285 61.195 17.3285 61.4516V62.4502C17.3285 62.7088 17.539 62.9168 17.7965 62.9168H22.4205C22.6799 62.9168 22.8885 63.1266 22.8885 63.3833V65.0845C22.8885 65.343 22.678 65.551 22.4205 65.551H17.7965C17.5371 65.551 17.3285 65.7608 17.3285 66.0175V66.0212Z" fill="#37C5E7"/>
    <path d="M34.3658 58.2123L39.2867 70.1205C39.4145 70.4278 39.1871 70.765 38.8525 70.765H35.8751C35.6834 70.765 35.5105 70.6489 35.4409 70.4709L34.659 68.5205C34.5876 68.3426 34.4146 68.2264 34.2248 68.2264H30.0049C29.8113 68.2264 29.6384 68.3444 29.5689 68.5224L28.8038 70.4672C28.7343 70.6451 28.5595 70.7632 28.3678 70.7632H25.3923C25.0596 70.7632 24.8321 70.4259 24.9581 70.1187L29.879 58.2104C29.9504 58.0362 30.1234 57.9219 30.3132 57.9219H33.9353C34.1252 57.9219 34.2962 58.0362 34.3695 58.2104L34.3658 58.2123ZM31.2023 65.6128H33.0199C33.3526 65.6128 33.5801 65.2774 33.4541 64.9702L33.0707 64.0334C32.8056 63.3645 32.2869 61.6652 32.1872 61.3374C32.1778 61.3036 32.1459 61.2811 32.112 61.2811C32.0763 61.2811 32.0463 61.3036 32.0369 61.3374C31.9372 61.6634 31.4185 63.3477 31.1534 64.0334L30.77 64.9702C30.644 65.2774 30.8715 65.6128 31.2042 65.6128H31.2023Z" fill="#37C5E7"/>
    <path d="M45.6608 65.2044C45.3281 64.6966 44.3488 62.9598 44.3488 62.9598L44.2905 62.9786C44.2905 62.9786 44.4672 64.9889 44.4672 65.6521V70.2985C44.4672 70.5571 44.2567 70.765 43.9992 70.765H41.3733C41.1139 70.765 40.9053 70.5552 40.9053 70.2985V58.3903C40.9053 58.1317 41.1158 57.9238 41.3733 57.9238H44.3319C44.4898 57.9238 44.6383 58.0043 44.7247 58.1355L48.3074 63.6212H48.3468L51.9088 58.1355C51.9953 58.0024 52.1437 57.9219 52.3016 57.9219H55.2583C55.5177 57.9219 55.7264 58.1317 55.7264 58.3884V70.2967C55.7264 70.5552 55.5159 70.7632 55.2583 70.7632H52.6325C52.3731 70.7632 52.1644 70.5533 52.1644 70.2967V65.6503C52.1644 64.987 52.3204 62.9767 52.3204 62.9767L52.2622 62.958C52.2622 62.958 51.2829 64.6948 50.9502 65.2025L48.719 68.6573C48.6325 68.7903 48.4841 68.8709 48.3243 68.8709C48.1664 68.8709 48.0179 68.7922 47.9314 68.6592L45.6608 65.2006V65.2044Z" fill="#37C5E7"/>
    <path d="M70.1372 57.9238C70.3966 57.9238 70.6052 58.1337 70.6052 58.3903V65.4761C70.6052 69.2232 67.9023 70.9993 64.3779 70.9993C60.8536 70.9993 58.1318 69.2232 58.1318 65.4761V58.3903C58.1318 58.1318 58.3424 57.9238 58.5999 57.9238H61.2464C61.5058 57.9238 61.7145 58.1337 61.7145 58.3903V65.2813C61.7145 66.9019 62.5753 67.8761 64.3779 67.8761C66.1805 67.8761 67.0414 66.9 67.0414 65.2813V58.3903C67.0414 58.1318 67.2519 57.9238 67.5094 57.9238H70.1353H70.1372Z" fill="#37C5E7"/>
    <path d="M78.2428 57.9238C82.1788 57.9238 84.0002 59.8555 84.0002 62.6077C84.0002 65.6129 82.1393 67.3122 78.7127 67.3122H77.0661C76.8067 67.3122 76.5981 67.522 76.5981 67.7787V70.2986C76.5981 70.5572 76.3876 70.7651 76.13 70.7651H73.5042C73.2448 70.7651 73.0361 70.5553 73.0361 70.2986V58.3903C73.0361 58.1318 73.2467 57.9238 73.5042 57.9238H78.2447H78.2428ZM78.2823 64.5993C79.848 64.5993 80.4946 63.936 80.4946 62.7257C80.4946 61.8864 80.1619 60.9683 78.145 60.9683H77.0661C76.8067 60.9683 76.5981 61.1782 76.5981 61.4349V64.1309C76.5981 64.3894 76.8086 64.5974 77.0661 64.5974H78.2823V64.5993Z" fill="#37C5E7"/>
</svg>
